<svg width="18" height="16" viewBox="0 0 18 16" fill="none" xmlns="http://www.w3.org/2000/svg">
<path d="M17.5357 1.23341C17.5219 1.17014 17.4916 1.11167 17.4478 1.06395C17.4041 1.01623 17.3484 0.980983 17.2866 0.961799C17.0615 0.917405 16.8286 0.934052 16.6121 1.01001C16.6121 1.01001 1.5923 6.40841 0.734626 7.00626C0.549269 7.13484 0.487661 7.2093 0.457126 7.29769C0.308733 7.72305 0.770519 7.91055 0.770519 7.91055L4.64159 9.17216C4.70698 9.18346 4.7741 9.17943 4.83766 9.16037C5.71838 8.6043 13.6978 3.56537 14.1591 3.39609C14.2314 3.37412 14.285 3.39609 14.2732 3.44966C14.0846 4.09573 7.19373 10.2195 7.1557 10.257C7.13721 10.2721 7.12268 10.2916 7.11335 10.3136C7.10402 10.3356 7.10016 10.3596 7.10213 10.3834L6.74213 14.1607C6.74213 14.1607 6.59105 15.3393 7.76748 14.1607C8.60159 13.3255 9.40195 12.6345 9.8032 12.2986C11.1344 13.2173 12.5669 14.2336 13.1846 14.7629C13.2883 14.8635 13.4111 14.9423 13.5459 14.9944C13.6806 15.0465 13.8245 15.0709 13.9689 15.0661C14.5582 15.0436 14.7189 14.3991 14.7189 14.3991C14.7189 14.3991 17.4553 3.38751 17.5475 1.91162C17.5561 1.76698 17.5684 1.6743 17.5694 1.57519C17.5743 1.46024 17.563 1.34518 17.5357 1.23341Z" fill="white"/>
</svg>
