<svg width="18" height="14" viewBox="0 0 18 14" fill="none" xmlns="http://www.w3.org/2000/svg">
<path d="M17.5714 1.69587C16.9286 1.96373 16.2857 2.17801 15.5357 2.23158C16.2857 1.80301 16.8214 1.10658 17.0893 0.303013C16.3929 0.731585 15.6429 0.999442 14.8393 1.16016C14.1964 0.463728 13.2857 0.0351562 12.3214 0.0351562C10.3929 0.0351562 8.78572 1.58873 8.78572 3.57087C8.78572 3.83873 8.83929 4.10659 8.89286 4.37444C5.94643 4.21373 3.375 2.82087 1.60714 0.678013C1.28571 1.21373 1.125 1.80301 1.125 2.44587C1.125 3.67801 1.76786 4.74944 2.67857 5.3923C2.08929 5.3923 1.55357 5.23158 1.07143 4.96373V5.0173C1.07143 6.73158 2.30357 8.12444 3.91071 8.44587C3.58929 8.49944 3.32143 8.55301 3 8.55301C2.78571 8.55301 2.57143 8.55301 2.35714 8.49944C2.78571 9.8923 4.125 10.9102 5.625 10.9637C4.44643 11.928 2.89286 12.4637 1.23214 12.4637C0.964286 12.4637 0.642857 12.4637 0.375 12.4102C1.98214 13.3744 3.85714 13.9637 5.83929 13.9637C12.3214 13.9637 15.8571 8.60658 15.8571 3.94587C15.8571 3.78516 15.8571 3.62444 15.8571 3.5173C16.5 2.98158 17.0893 2.3923 17.5714 1.69587Z" fill="white"/>
</svg>
